<svg xmlns="http://www.w3.org/2000/svg" viewBox="0 0 1920 1080" width="1920" height="1080">
  <defs>
    <linearGradient id="mainGrad" x1="0%" y1="0%" x2="100%" y2="100%">
      <stop offset="0%" style="stop-color:#eff6ff;stop-opacity:1"/>
      <stop offset="30%" style="stop-color:#dbeafe;stop-opacity:1"/>
      <stop offset="60%" style="stop-color:#e0f2fe;stop-opacity:1"/>
      <stop offset="100%" style="stop-color:#eff6ff;stop-opacity:1"/>
    </linearGradient>
  </defs>
  <rect width="1920" height="1080" fill="url(#mainGrad)"/>
  <!-- Subtle decorative shapes in light blue tones -->
  <g opacity="0.10">
    <rect x="100" y="50" width="280" height="180" rx="40" fill="#60a5fa" transform="rotate(-15, 240, 140)"/>
    <rect x="400" y="200" width="200" height="350" rx="50" fill="#3b82f6" transform="rotate(25, 500, 375)"/>
    <rect x="800" y="-50" width="300" height="200" rx="45" fill="#93c5fd" transform="rotate(-30, 950, 50)"/>
    <rect x="1200" y="100" width="250" height="400" rx="60" fill="#60a5fa" transform="rotate(20, 1325, 300)"/>
    <rect x="1500" y="300" width="180" height="280" rx="40" fill="#3b82f6" transform="rotate(-10, 1590, 440)"/>
    <rect x="200" y="600" width="320" height="200" rx="50" fill="#93c5fd" transform="rotate(15, 360, 700)"/>
    <rect x="700" y="500" width="250" height="180" rx="45" fill="#60a5fa" transform="rotate(-20, 825, 590)"/>
    <rect x="1100" y="650" width="200" height="300" rx="50" fill="#3b82f6" transform="rotate(30, 1200, 800)"/>
    <rect x="1500" y="700" width="280" height="180" rx="40" fill="#93c5fd" transform="rotate(-25, 1640, 790)"/>
    <rect x="50" y="350" width="150" height="250" rx="35" fill="#3b82f6" transform="rotate(35, 125, 475)"/>
  </g>
</svg>
